<svg xmlns="http://www.w3.org/2000/svg" viewBox="0 0 800 400" fill="none">
  <rect width="800" height="400" fill="#0f172a"/>
  <rect x="60" y="60" width="680" height="280" rx="12" fill="#1e293b"/>
  <rect x="100" y="100" width="200" height="200" rx="8" fill="#6366f1" opacity="0.2"/>
  <rect x="120" y="120" width="160" height="8" rx="4" fill="#6366f1"/>
  <rect x="120" y="140" width="120" height="6" rx="3" fill="#94a3b8"/>
  <rect x="120" y="158" width="140" height="6" rx="3" fill="#94a3b8"/>
  <rect x="120" y="176" width="100" height="6" rx="3" fill="#94a3b8"/>
  <rect x="340" y="100" width="360" height="200" rx="8" fill="#334155"/>
  <rect x="360" y="120" width="280" height="12" rx="6" fill="#6366f1" opacity="0.6"/>
  <rect x="360" y="148" width="240" height="8" rx="4" fill="#94a3b8"/>
  <rect x="360" y="168" width="200" height="8" rx="4" fill="#94a3b8"/>
  <rect x="360" y="188" width="220" height="8" rx="4" fill="#94a3b8"/>
  <rect x="360" y="220" width="100" height="36" rx="6" fill="#6366f1"/>
  <text x="410" y="243" text-anchor="middle" font-family="system-ui,sans-serif" font-size="13" fill="white">Get Started</text>
</svg>
